<svg id="Layer_1" xmlns="http://www.w3.org/2000/svg" viewBox="0 0 174 178"><style>.st0{fill:#fff}.st1{fill:#003a70}.st2{fill:url(#SVGID_1_)}.st3{fill:url(#SVGID_2_)}.st4{fill:#00bdda}.st5{fill:#00a1dc}.st6{fill:#0099d6}.st7{fill:url(#SVGID_3_)}.st8{fill:url(#SVGID_4_)}.st9{fill:#005396}.st10{fill:url(#SVGID_5_)}.st11{fill:url(#SVGID_6_)}.st12{fill:url(#SVGID_7_)}</style><path class="st0" d="M33.9 94.1l-20.7 8.6 73.5 31.4 19.6-8.8z"/><path class="st0" d="M86.8 153.3l74-34.2-.1-18.4-74 33.4-6.7 6.4z"/><path class="st1" d="M69.2 92l-19.7 8.9-.9-45.2L69 59.1z"/><path class="st0" d="M69.2 32.6l-17 6.6 36.3 51.9 11.3-17z"/><path class="st1" d="M127.9 101.4l-21.5-9.2 3.9-37.7 18.5-3.8z"/><linearGradient id="SVGID_1_" gradientUnits="userSpaceOnUse" x1="77.607" y1="131.469" x2="160.148" y2="89.663"><stop offset="0" stop-color="#005396"/><stop offset=".019" stop-color="#00599b"/><stop offset=".079" stop-color="#0067a8"/><stop offset=".146" stop-color="#0073b4"/><stop offset=".222" stop-color="#007dbf"/><stop offset=".31" stop-color="#0085c8"/><stop offset=".42" stop-color="#008bcf"/><stop offset=".573" stop-color="#008ed3"/><stop offset="1" stop-color="#008fd5"/></linearGradient><path class="st2" d="M66.4 125.8l74-32.1 20.3 7-74 33.4z"/><linearGradient id="SVGID_2_" gradientUnits="userSpaceOnUse" x1="81.166" y1="64.717" x2="57.839" y2="28.599"><stop offset=".001" stop-color="#005396"/><stop offset=".131" stop-color="#005f9e" stop-opacity=".986"/><stop offset=".373" stop-color="#0071ac" stop-opacity=".96"/><stop offset=".594" stop-color="#007eb7" stop-opacity=".935"/><stop offset=".784" stop-color="#0087be" stop-opacity=".915"/><stop offset=".92" stop-color="#008ac1" stop-opacity=".9"/></linearGradient><path class="st3" d="M69.2 32.6l-17 6.6 36.3 51.9 11.3-17z"/><path class="st4" d="M33.9 94.1l-.1-62.9 18.4 8 30.1 42.5 23.8-50.9 16.7 7.7-36 78.4-6.3-2.6-30.8-46-.2 32.6z"/><path class="st5" d="M106.1 30.8l16.4-6.1 17.6 7-17.3 6.8zm-72.3.4l16.4-6.5 19 7.9-16.6 7.1z"/><path class="st6" d="M86.8 116.9l20.7-8.7 18.2-41.9v34.1l14.7-6.7-.3-62-17.4 6.9z"/><linearGradient id="SVGID_3_" gradientUnits="userSpaceOnUse" x1="25.93" y1="103.107" x2="106.765" y2="145.464"><stop offset=".187" stop-color="#005396"/><stop offset=".305" stop-color="#005598"/><stop offset=".436" stop-color="#005c9d"/><stop offset=".574" stop-color="#0066a7"/><stop offset=".716" stop-color="#0074b5"/><stop offset=".86" stop-color="#0086c9"/><stop offset=".92" stop-color="#008fd5"/></linearGradient><path class="st7" d="M33.9 94.1l-20.7 8.6 31.2 30 42.3 1.4 19.6-8.8z"/><linearGradient id="SVGID_4_" gradientUnits="userSpaceOnUse" x1="91.017" y1="145.526" x2="163.142" y2="103.769"><stop offset=".001" stop-color="#005396"/><stop offset=".221" stop-color="#0062a0" stop-opacity=".976"/><stop offset=".696" stop-color="#007eb7" stop-opacity=".924"/><stop offset=".921" stop-color="#008ac1" stop-opacity=".9"/></linearGradient><path class="st8" d="M86.8 153.3l74-34.2-.1-18.4-74 33.4-6.7 6.4z"/><path class="st9" d="M13.2 102.7v17.9l73.6 32.7-.1-19.3z"/><linearGradient id="SVGID_5_" gradientUnits="userSpaceOnUse" x1="75.473" y1="86.891" x2="112.088" y2="62.103" gradientTransform="translate(2.719 44.95)"><stop offset="0" stop-color="#005396" stop-opacity="0"/><stop offset=".184" stop-color="#0063a4" stop-opacity=".184"/><stop offset=".435" stop-color="#0076b7" stop-opacity=".435"/><stop offset=".664" stop-color="#0084c6" stop-opacity=".664"/><stop offset=".86" stop-color="#008cd0" stop-opacity=".86"/><stop offset="1" stop-color="#008fd5"/></linearGradient><path class="st10" d="M89.3 116.1L67 125.6l19.8 8.5 28.8-13.1-22.8-6.6z"/><linearGradient id="SVGID_6_" gradientUnits="userSpaceOnUse" x1="114.84" y1="25.66" x2="78.457" y2="117.23"><stop offset="0" stop-color="#005396" stop-opacity=".8"/><stop offset=".069" stop-color="#0067a6" stop-opacity=".83"/><stop offset=".141" stop-color="#0277b5" stop-opacity=".861"/><stop offset=".215" stop-color="#0385c2" stop-opacity=".893"/><stop offset=".292" stop-color="#0290cc" stop-opacity=".926"/><stop offset=".372" stop-color="#0097d3" stop-opacity=".961"/><stop offset=".462" stop-color="#0099d6"/><stop offset=".469" stop-color="#0097d4"/><stop offset=".592" stop-color="#037dba"/><stop offset=".71" stop-color="#006aa9"/><stop offset=".821" stop-color="#005e9f"/><stop offset=".92" stop-color="#005698"/><stop offset="1" stop-color="#005396"/></linearGradient><path class="st11" d="M80.4 114.3l6.4 2.6 36-78.3-16.8-7.8-23.8 50.9-8.4 14.4z"/><linearGradient id="SVGID_7_" gradientUnits="userSpaceOnUse" x1="57.567" y1="116.339" x2="58.391" y2="12.453"><stop offset=".002" stop-color="#005396"/><stop offset=".101" stop-color="#005a9b"/><stop offset=".285" stop-color="#006baa"/><stop offset=".531" stop-color="#0388c4"/><stop offset=".645" stop-color="#0099d6"/></linearGradient><path class="st12" d="M52.6 39.7l-3-1.3-15.7-7.2v62.9l15.7 6.8.1-32.5.1.2 30.6 45.7 1-18 .8-14.7z"/></svg>