<?xml version="1.0" encoding="UTF-8"?>
<!DOCTYPE svg PUBLIC "-//W3C//DTD SVG 1.1//EN" "http://www.w3.org/Graphics/SVG/1.1/DTD/svg11.dtd">
<!-- Creator: CorelDRAW X6 -->
<svg xmlns="http://www.w3.org/2000/svg" xml:space="preserve" width="6.79166in" height="2.26389in" version="1.1" style="shape-rendering:geometricPrecision; text-rendering:geometricPrecision; image-rendering:optimizeQuality; fill-rule:evenodd; clip-rule:evenodd"
viewBox="0 0 6792 2264"
 xmlns:xlink="http://www.w3.org/1999/xlink">
 <defs>
  <style type="text/css">
   <![CDATA[
    .fil0 {fill:#414041;fill-rule:nonzero}
    .fil1 {fill:#A3CE43;fill-rule:nonzero}
   ]]>
  </style>
 </defs>
 <g id="Layer_x0020_1">
  <metadata id="CorelCorpID_0Corel-Layer"/>
  <path class="fil0" d="M1239 544c0,-41 33,-74 74,-74 40,0 72,33 72,74l0 215 137 0c41,0 74,30 74,69 0,43 -31,71 -74,71l-137 0 0 370c0,54 28,88 65,88 41,0 48,-11 75,-11 35,0 71,25 71,68 0,35 -27,62 -62,69 -28,6 -55,8 -84,8 -116,0 -211,-91 -211,-221l0 -727z"/>
  <path class="fil0" d="M1774 956c0,-120 91,-211 211,-211 35,0 71,4 106,11 34,7 58,35 58,69 0,38 -28,68 -69,68 -9,0 -13,0 -24,-3 -23,-6 -48,-11 -71,-11 -35,0 -65,30 -65,65l0 473c0,41 -33,74 -72,74 -41,0 -74,-33 -74,-74l0 -462z"/>
  <path class="fil0" d="M2507 1449l-234 -605c-3,-9 -6,-18 -6,-27 0,-37 34,-72 75,-72 30,0 57,18 67,47l170 466 146 -463c10,-30 38,-50 68,-50 38,0 75,31 75,74 0,7 -1,16 -4,23l-254 758c-38,116 -137,194 -272,194 -38,0 -72,-27 -72,-69 0,-37 31,-67 69,-68 62,-3 116,-28 136,-91l35 -116z"/>
  <path class="fil0" d="M3451 1031c0,-89 -58,-152 -152,-152 -96,0 -152,55 -152,152l0 176c0,95 55,150 152,150 96,0 152,-55 152,-150l0 -176zm146 163c0,86 -28,162 -82,215 -54,54 -129,82 -215,82 -86,0 -162,-28 -215,-82 -54,-54 -82,-129 -82,-215l0 -152c0,-86 28,-162 82,-215 54,-54 129,-82 215,-82 86,0 162,28 215,82 54,54 82,129 82,215l0 152z"/>
  <path class="fil0" d="M4314 544c0,-41 33,-74 74,-74 40,0 72,33 72,74l0 874c0,41 -33,74 -72,74 -41,0 -74,-33 -74,-74l0 -874z"/>
  <path class="fil0" d="M5061 1170l-146 0c-123,0 -130,67 -130,91 0,26 7,96 130,96 48,0 101,-7 146,-18l0 -169zm146 198c0,40 -26,74 -62,86 -69,24 -150,37 -230,37 -86,0 -154,-21 -203,-62 -48,-41 -74,-99 -74,-169 0,-69 26,-123 74,-163 48,-41 116,-62 203,-62l146 0 0 -50c0,-60 -44,-106 -118,-106 -67,0 -103,9 -153,38 -11,7 -27,13 -40,13 -38,0 -69,-28 -69,-64 0,-26 11,-51 35,-65 77,-44 143,-57 245,-57 159,0 245,115 245,241l0 383z"/>
  <path class="fil0" d="M5807 1017c0,-86 -51,-137 -139,-137 -51,0 -98,18 -137,51l0 410c45,11 91,17 137,17 88,0 139,-50 139,-137l0 -203zm146 190c0,84 -28,154 -79,205 -51,52 -122,79 -206,79 -77,0 -150,-13 -221,-37 -37,-13 -62,-47 -62,-86l0 -825c0,-41 33,-74 74,-74 40,0 72,33 72,74l0 238c44,-20 101,-37 147,-37 84,0 146,24 197,77 51,51 78,125 78,207l0 179z"/>
  <path class="fil0" d="M6254 1153c-77,-28 -136,-88 -136,-194 0,-125 103,-214 245,-214 96,0 146,14 193,35 28,11 47,37 47,67 0,37 -30,68 -68,68 -10,0 -24,-3 -34,-7 -35,-17 -94,-28 -140,-28 -58,0 -96,28 -96,77 0,37 28,60 58,69l139 45c94,31 150,95 150,198 0,125 -101,222 -252,222 -84,0 -152,-16 -204,-40 -27,-13 -44,-37 -44,-65 0,-37 31,-71 71,-71 10,0 23,4 33,8 38,20 85,33 147,33 68,0 103,-26 103,-74 0,-52 -43,-69 -95,-88l-116 -43z"/>
  <path class="fil1" d="M690 877c-29,0 -56,11 -77,32l-299 299c-21,21 -32,48 -32,77 0,29 11,56 32,77 21,21 48,32 77,32 29,0 56,-11 77,-32l299 -299c42,-42 42,-111 0,-153 -20,-20 -48,-32 -77,-32zm-299 618c-56,0 -109,-22 -149,-62 -40,-40 -62,-93 -62,-149 0,-56 22,-109 62,-149l299 -299c40,-40 93,-62 149,-62 56,0 109,22 149,62 82,82 82,216 0,298l-299 299c-40,40 -93,62 -149,62zm0 -917c-29,0 -56,11 -77,32 -21,21 -32,48 -32,77 0,29 11,56 32,77l299 299c21,21 48,32 77,32 29,0 56,-11 77,-32 42,-42 42,-111 0,-153l-299 -299c-20,-20 -48,-32 -77,-32zm299 618c-56,0 -109,-22 -149,-62l-299 -299c-40,-40 -62,-93 -62,-149 0,-56 22,-109 62,-149 40,-40 93,-62 149,-62 56,0 109,22 149,62l299 299c82,82 82,216 0,298 -40,40 -93,62 -149,62z"/>
  <path class="fil1" d="M4087 1132c0,71 -57,128 -128,128 -71,0 -128,-58 -128,-128 0,-71 57,-128 128,-128 71,0 128,57 128,128z"/>
 </g>
</svg>
